<svg viewBox="0 0 200 146.8509251839772" preserveAspectRatio="xMidYMid meet" class="css-4ymrzp" id="dabfhhdb"><defs id="SvgjsDefs1001"><linearGradient id="SvgjsLinearGradient1011"><stop id="SvgjsStop1012" stop-color="#8f5e25" offset="0"></stop><stop id="SvgjsStop1013" stop-color="#fbf4a1" offset="0.5"></stop><stop id="SvgjsStop1014" stop-color="#8f5e25" offset="1"></stop></linearGradient><linearGradient id="SvgjsLinearGradient1015"><stop id="SvgjsStop1016" stop-color="#8f5e25" offset="0"></stop><stop id="SvgjsStop1017" stop-color="#fbf4a1" offset="0.5"></stop><stop id="SvgjsStop1018" stop-color="#8f5e25" offset="1"></stop></linearGradient></defs><g id="SvgjsG1007" featurekey="symbolFeature-0" transform="matrix(0.7812486030186361,0,0,0.7812486030186361,50.00009578635552,0)" fill="url(#SvgjsLinearGradient1011)"><path xmlns="http://www.w3.org/2000/svg" d="M32,30.5205002c0.5521889,0,1-0.4477005,1-1v-4c0-0.5522003-0.4478111-1-1-1c-0.5522118,0-1,0.4477997-1,1v4  C31,30.0727997,31.4477882,30.5205002,32,30.5205002z"></path><path xmlns="http://www.w3.org/2000/svg" d="M40,30.5205002c0.5521889,0,1-0.4477005,1-1v-4c0-0.5522003-0.4478111-1-1-1c-0.5522118,0-1,0.4477997-1,1v4  C39,30.0727997,39.4477882,30.5205002,40,30.5205002z"></path><path xmlns="http://www.w3.org/2000/svg" d="M48,30.5205002c0.5521889,0,1-0.4477005,1-1v-4c0-0.5522003-0.4478111-1-1-1c-0.5522118,0-1,0.4477997-1,1v4  C47,30.0727997,47.4477882,30.5205002,48,30.5205002z"></path><path xmlns="http://www.w3.org/2000/svg" d="M56,30.5205002c0.5521889,0,1-0.4477005,1-1v-4c0-0.5522003-0.4478111-1-1-1c-0.5522118,0-1,0.4477997-1,1v4  C55,30.0727997,55.4477882,30.5205002,56,30.5205002z"></path><path xmlns="http://www.w3.org/2000/svg" d="M64,30.5205002c0.5521851,0,1-0.4477005,1-1v-4c0-0.5522003-0.4478149-1-1-1c-0.5522118,0-1,0.4477997-1,1v4  C63,30.0727997,63.4477882,30.5205002,64,30.5205002z"></path><path xmlns="http://www.w3.org/2000/svg" d="M72,30.5205002c0.5521851,0,1-0.4477005,1-1v-4c0-0.5522003-0.4478149-1-1-1c-0.5522156,0-1,0.4477997-1,1v4  C71,30.0727997,71.4477844,30.5205002,72,30.5205002z"></path><path xmlns="http://www.w3.org/2000/svg" d="M80,30.5205002c0.5521851,0,1-0.4477005,1-1v-4c0-0.5522003-0.4478149-1-1-1c-0.5522156,0-1,0.4477997-1,1v4  C79,30.0727997,79.4477844,30.5205002,80,30.5205002z"></path><path xmlns="http://www.w3.org/2000/svg" d="M88,30.5205002c0.5521851,0,1-0.4477005,1-1v-4c0-0.5522003-0.4478149-1-1-1c-0.5522156,0-1,0.4477997-1,1v4  C87,30.0727997,87.4477844,30.5205002,88,30.5205002z"></path><path xmlns="http://www.w3.org/2000/svg" d="M96,30.5205002c0.5521851,0,1-0.4477005,1-1v-4c0-0.5522003-0.4478149-1-1-1c-0.5522156,0-1,0.4477997-1,1v4  C95,30.0727997,95.4477844,30.5205002,96,30.5205002z"></path><path xmlns="http://www.w3.org/2000/svg" d="M40,59.0004997h-8c-0.5522118,0-1,0.4477005-1,1c0,0.5522003,0.4477882,1,1,1h8c0.5521889,0,1-0.4477997,1-1  C41,59.4482002,40.5521889,59.0004997,40,59.0004997z"></path><path xmlns="http://www.w3.org/2000/svg" d="M40,65h-8c-0.5522118,0-1,0.4473038-1,1s0.4477882,1,1,1h8c0.5521889,0,1-0.4473038,1-1S40.5521889,65,40,65z"></path><path xmlns="http://www.w3.org/2000/svg" d="M88,61.0004997h8c0.5521851,0,1-0.4477997,1-1c0-0.5522995-0.4478149-1-1-1h-8c-0.5522156,0-1,0.4477005-1,1  C87,60.5527,87.4477844,61.0004997,88,61.0004997z"></path><path xmlns="http://www.w3.org/2000/svg" d="M88,67h8c0.5521851,0,1-0.4473038,1-1s-0.4478149-1-1-1h-8c-0.5522156,0-1,0.4473038-1,1S87.4477844,67,88,67z"></path><path xmlns="http://www.w3.org/2000/svg" d="M0.8407888,127.6298981C1.1923888,127.8798981,1.5971887,128,1.9984888,128  c0.6249999,0,1.2411999-0.2919998,1.6314-0.8407974L35.0321884,83h57.9356003l31.402298,44.1592026  C124.7602844,127.7080002,125.3759995,128,126.0014877,128c0.400795,0,0.8060989-0.1201019,1.1576996-0.3701019  c0.8998947-0.6397018,1.110817-1.8886948,0.4706955-2.7891006L97.8764877,83H124c1.1044846,0,2-0.8955002,2-2s-0.8955154-2-2-2h-15  V20h14c2.2001877,0,2.7841873-1.3271008,1.2978821-2.9491997L111.375,2.9491999C109.8886871,1.3271,106.8730011,0,104.6728897,0  H23.3270874C21.1270008,0,18.1112881,1.3271,16.625,2.9491999L3.7020886,17.0508003C2.2157888,18.6728992,2.7997887,20,5,20h14v59H6  c-1.1045113,0-2,0.8955002-2,2s0.8954887,2,2,2h24.1234875L0.3700888,124.8407974  C-0.27,125.7412033-0.0591112,126.9901962,0.8407888,127.6298981z M63,79H53V65h10V79z M63,63H53v-9  c0-2.205101,1.7943878-3.9990005,4-3.9990005h6V63z M75,79H65V65h10V79z M75,63H65V50.0009995h6  c2.2055893,0,4,1.7938995,4,3.9990005V63z M105,35.0009995H23V20h82V35.0009995z M10.0907888,16l9.4833994-10.3486004  C20.3095875,4.8491001,22.2387886,4,23.3270874,4h81.3458023c1.088295,0,3.0174942,0.8491001,3.7528992,1.6518998L117.9091873,16  H10.0907888z M23,79V37.0009995h82V79H79V54c0-4.4179993-3.5815125-7.9990005-8-7.9990005H57c-4.4185143,0-8,3.5810013-8,7.9990005  v25H23z"></path><path xmlns="http://www.w3.org/2000/svg" d="M87,93c0.5521851,0,1-0.4473038,1-1s-0.4478149-1-1-1H41c-0.5522118,0-1,0.4473038-1,1s0.4477882,1,1,1H87z"></path><path xmlns="http://www.w3.org/2000/svg" d="M35,102c0,0.5526962,0.4477882,1,1,1h56c0.5521851,0,1-0.4473038,1-1s-0.4478149-1-1-1H36  C35.4477882,101,35,101.4473038,35,102z"></path><path xmlns="http://www.w3.org/2000/svg" d="M27,112c0,0.5526962,0.4477882,1,1,1h72c0.5521851,0,1-0.4473038,1-1s-0.4478149-1-1-1H28  C27.4477882,111,27,111.4473038,27,112z"></path></g><g id="SvgjsG1008" featurekey="nameFeature-0" transform="matrix(0.5575358236929074,0,0,0.5575358236929074,0.0007255316299662234,115.60661764549498)" fill="url(#SvgjsLinearGradient1015)"><path d="M12.04 26.119999999999997 c1.2267 0.50668 2.32 1.1533 3.28 1.94 s1.76 1.68 2.4 2.68 s1.1133 2.0867 1.42 3.26 s0.42 2.3733 0.34 3.6 l-12.04 -4.84 l0 -0.04 c-1.2 -0.48 -2.28 -1.12 -3.24 -1.92 s-1.7667 -1.7 -2.42 -2.7 s-1.1333 -2.08 -1.44 -3.24 s-0.40668 -2.3667 -0.3 -3.62 z M18.88 27.08 c-0.8 -1.44 -1.7733 -2.6667 -2.92 -3.68 s-2.2667 -1.8533 -3.36 -2.52 c-1.28 -0.77332 -2.5867 -1.4266 -3.92 -1.96 l10.2 0 l0 8.16 z M0 31.4 c0.77332 1.44 1.7267 2.6933 2.86 3.76 s2.2333 1.96 3.3 2.68 c1.2533 0.85332 2.5333 1.56 3.84 2.12 l-10 0 l0 -8.56 z M38.84 18.56 l0 8.68 l-0.16 0 c-0.18668 -0.26668 -0.48668 -0.71336 -0.9 -1.34 s-0.96 -1.34 -1.64 -2.14 s-1.5067 -1.64 -2.48 -2.52 s-2.1133 -1.7067 -3.42 -2.48 l0 -0.2 l8.6 0 z M21.68 17.16 c1.0133 -0.53332 2.0533 -1.1467 3.12 -1.84 c0.90668 -0.61332 1.9067 -1.3533 3 -2.22 s2.1733 -1.86 3.24 -2.98 l0 13.32 l0 6.56 c0 0.93332 0.12668 1.78 0.38 2.54 s0.59332 1.4533 1.02 2.08 s0.90668 1.18 1.44 1.66 s1.08 0.89332 1.64 1.24 c1.3067 0.85332 2.8 1.5066 4.48 1.96 c-1.0667 0.18668 -2.1334 0.33336 -3.2 0.44004 c-0.93332 0.08 -1.94 0.10668 -3.02 0.08 s-2.1 -0.16 -3.06 -0.4 c-0.93332 -0.24 -1.8066 -0.68 -2.62 -1.32 s-1.52 -1.42 -2.12 -2.34 s-1.0733 -1.94 -1.42 -3.06 s-0.52 -2.2667 -0.52 -3.44 l0 -6.36 c0 -1.36 -0.12668 -2.4267 -0.38 -3.2 s-0.52664 -1.36 -0.81996 -1.76 c-0.34668 -0.48 -0.73336 -0.8 -1.16 -0.96 z M43.32 25.16 c-0.72 -1.68 -0.23996 -3.2267 1.44 -4.64 c0.58668 -0.48 1.18 -0.84668 1.78 -1.1 s1.1533 -0.43332 1.66 -0.54 c0.58668 -0.10668 1.1467 -0.16 1.68 -0.16 c-0.29332 0.26668 -0.52 0.58668 -0.68 0.96 c-0.13332 0.32 -0.21332 0.71332 -0.24 1.18 s0.10664 1.0067 0.39996 1.62 c0.18668 0.4 0.28668 0.82 0.3 1.26 s-0.06 0.86 -0.22 1.26 s-0.38668 0.76 -0.68 1.08 s-0.65332 0.57332 -1.08 0.76 c-0.4 0.18668 -0.82 0.28 -1.26 0.28 s-0.86 -0.07332 -1.26 -0.22 s-0.76 -0.36668 -1.08 -0.66 s-0.57332 -0.65332 -0.76 -1.08 z M48.52 39.92 l3.08 0 c-1.0933 -0.37332 -1.9866 -1.04 -2.68 -2 s-1.04 -2.0533 -1.04 -3.28 s0.34668 -2.32 1.04 -3.28 s1.5866 -1.6267 2.68 -2 l-3.52 0 c-1.36 0 -2.5 0.17332 -3.42 0.52 s-1.6467 0.78 -2.18 1.3 s-0.91332 1.0867 -1.14 1.7 s-0.34 1.2 -0.34 1.76 c0 0.58668 0.1 1.1867 0.3 1.8 s0.56668 1.18 1.1 1.7 s1.26 0.94668 2.18 1.28 s2.0867 0.5 3.5 0.5 l0.44 0 z M56.480000000000004 19.04 l-0.36 -0.08 l0 9.2 l0 11.84 l7.32 0 l0 -11.28 c0 -1.1733 -0.18668 -2.2933 -0.56 -3.36 s-0.88 -2.0267 -1.52 -2.88 s-1.38 -1.58 -2.22 -2.18 s-1.7267 -1.02 -2.66 -1.26 z M86.32 19.32 c0.74668 0.61332 1.1599 1.38 1.2399 2.3 s-0.17332 1.74 -0.76 2.46 c-0.61332 0.74668 -1.3866 1.16 -2.32 1.24 s-1.7733 -0.18668 -2.52 -0.8 c-0.53332 -0.45332 -1.04 -0.73332 -1.52 -0.84 s-0.90668 -0.13336 -1.28 -0.08004 c-0.45332 0.05332 -0.85332 0.18664 -1.2 0.39996 c0.18668 -0.56 0.42668 -1.1067 0.72 -1.64 c0.26668 -0.45332 0.61336 -0.94664 1.04 -1.48 s0.97336 -1.0266 1.64 -1.48 c1.8933 -1.2533 3.5466 -1.28 4.96 -0.08 z M68.719921876 21.8 c0.82668 -0.21332 1.66 -0.5134 2.5 -0.90008 s1.5933 -0.78668 2.26 -1.2 s1.2067 -0.78664 1.62 -1.12 s0.62 -0.56664 0.62 -0.69996 l0 22 l-7 0 l0 -18.08 z M87.96 13.920000000000002 c1.2267 -0.53332 2.3732 -1.0867 3.4399 -1.66 s1.9867 -1.1 2.76 -1.58 c0.90668 -0.53332 1.7334 -1.0666 2.48 -1.6 l0 30.92 l-7 0 l0 -21.16 c0 -1.0133 -0.08668 -1.84 -0.26 -2.48 s-0.36664 -1.1467 -0.57996 -1.52 c-0.26668 -0.42668 -0.54668 -0.73336 -0.84 -0.92004 z M111.08 11.68 c0 0.53332 -0.1 1.0266 -0.3 1.48 s-0.47332 0.85332 -0.82 1.2 s-0.75336 0.62 -1.22 0.82 s-0.95336 0.3 -1.46 0.3 c-0.53332 0 -1.0333 -0.1 -1.5 -0.3 s-0.86668 -0.47332 -1.2 -0.82 s-0.6 -0.74668 -0.8 -1.2 s-0.3 -0.94664 -0.3 -1.48 c0 -0.50668 0.1 -0.99336 0.3 -1.46 s0.46668 -0.87336 0.8 -1.22 s0.73332 -0.62 1.2 -0.82 s0.96668 -0.3 1.5 -0.3 c0.50668 0 0.99336 0.1 1.46 0.3 s0.87336 0.47332 1.22 0.82 s0.62 0.75336 0.82 1.22 s0.3 0.95336 0.3 1.46 z M101.84 22.92 c0.29332 0.18668 0.57344 0.4934 0.84012 0.92008 c0.21332 0.37332 0.40664 0.88 0.57996 1.52 s0.26 1.4667 0.26 2.48 l0 12.16 l7 0 l0 -21.92 c-0.74668 0.53332 -1.5734 1.0666 -2.48 1.6 c-0.77332 0.48 -1.6933 1.0067 -2.76 1.58 s-2.2134 1.1266 -3.44 1.66 z M130.68 19.36 c1.1467 0 2.2334 0.22672 3.26 0.68004 s1.92 1.0666 2.68 1.84 s1.36 1.68 1.8 2.72 s0.66 2.16 0.66 3.36 s-0.22 2.32 -0.66 3.36 s-1.04 1.9533 -1.8 2.74 s-1.6533 1.4067 -2.68 1.86 s-2.1134 0.68 -3.26 0.68 l-1.24 0 c0.4 -0.34668 0.76 -0.80668 1.08 -1.38 s0.6 -1.2333 0.84 -1.98 s0.42668 -1.5667 0.56 -2.46 s0.2 -1.8333 0.2 -2.82 c0 -0.96 -0.06668 -1.8867 -0.2 -2.78 s-0.32 -1.7133 -0.56 -2.46 s-0.52 -1.4067 -0.84 -1.98 s-0.68 -1.0333 -1.08 -1.38 l1.24 0 z M123.68 36.6 c-1.1733 0 -2.2666 -0.22676 -3.28 -0.68008 s-1.9 -1.0733 -2.66 -1.86 s-1.36 -1.7 -1.8 -2.74 s-0.66 -2.16 -0.66 -3.36 s0.22 -2.32 0.66 -3.36 s1.04 -1.9467 1.8 -2.72 s1.6467 -1.3866 2.66 -1.84 s2.1066 -0.68 3.28 -0.68 l1.4 0 c-0.77332 0.69332 -1.4066 1.8133 -1.9 3.36 s-0.74 3.2934 -0.74 5.24 c0 1.9733 0.24668 3.7333 0.74 5.28 s1.1266 2.6667 1.9 3.36 l-1.4 0 z M132.28 41.44 c1.28 0.29332 2.4467 0.75992 3.5 1.3999 s1.9733 1.4 2.76 2.28 s1.42 1.8733 1.9 2.98 s0.77332 2.2734 0.88 3.5 l-14.76 -3.4 c-1.28 -0.29332 -2.4533 -0.76 -3.52 -1.4 s-1.9934 -1.4 -2.78 -2.28 s-1.42 -1.8667 -1.9 -2.96 s-0.77332 -2.2666 -0.88 -3.52 l14.76 3.4 l0.04 0 z M118.24 47 c0.42668 0.88 0.92676 1.6867 1.5001 2.42 s1.1866 1.3933 1.84 1.98 s1.3266 1.1067 2.02 1.56 s1.36 0.85332 2 1.2 c1.52 0.8 3.0933 1.4267 4.72 1.88 l-12.08 0 l0 -9.04 z M142.4 13.760000000000002 c0.50668 0.8 0.64676 1.6532 0.42008 2.5599 s-0.72668 1.6134 -1.5 2.12 c-0.82668 0.50668 -1.7 0.64668 -2.62 0.42 s-1.6333 -0.74 -2.14 -1.54 c-0.37332 -0.58668 -0.76 -1.0067 -1.16 -1.26 s-0.77332 -0.40664 -1.12 -0.45996 c-0.4 -0.08 -0.8 -0.06668 -1.2 0.04 c0.29332 -0.48 0.66664 -0.93332 1.12 -1.36 c0.37332 -0.37332 0.84664 -0.74664 1.42 -1.12 s1.2466 -0.66664 2.02 -0.87996 c2.1867 -0.58668 3.7734 -0.09336 4.76 1.48 z M161 19.16 c0.93332 0.24 1.82 0.66 2.66 1.26 s1.58 1.3267 2.22 2.18 s1.1467 1.8133 1.52 2.88 s0.56 2.1867 0.56 3.36 l0 11.16 l-7.32 0 l0 -11.72 l0 -9.2 c0.05332 0.02668 0.11332 0.04 0.18 0.04 s0.12668 0.01332 0.18 0.04 z M144.76 13.920000000000002 c1.2267 -0.53332 2.3732 -1.0867 3.4399 -1.66 s1.9867 -1.1 2.76 -1.58 c0.90668 -0.53332 1.7334 -1.0666 2.48 -1.6 l0 30.92 l-7 0 l0 -21.16 c0 -1.0133 -0.08668 -1.84 -0.26 -2.48 s-0.36664 -1.1467 -0.57996 -1.52 c-0.26668 -0.42668 -0.54668 -0.73336 -0.84 -0.92004 z M187 18.56 l0 8.68 l-0.16 0 c-0.18668 -0.26668 -0.48668 -0.71336 -0.9 -1.34 s-0.96 -1.34 -1.64 -2.14 s-1.5067 -1.64 -2.48 -2.52 s-2.1133 -1.7067 -3.42 -2.48 l0 -0.2 l8.6 0 z M169.84 17.16 c1.0133 -0.53332 2.0533 -1.1467 3.12 -1.84 c0.90668 -0.61332 1.9067 -1.3533 3 -2.22 s2.1733 -1.86 3.24 -2.98 l0 13.32 l0 6.56 c0 0.93332 0.12668 1.78 0.38 2.54 s0.59332 1.4533 1.02 2.08 s0.90668 1.18 1.44 1.66 s1.08 0.89332 1.64 1.24 c1.3067 0.85332 2.8 1.5066 4.48 1.96 c-1.0667 0.18668 -2.1334 0.33336 -3.2 0.44004 c-0.93332 0.08 -1.94 0.10668 -3.02 0.08 s-2.1 -0.16 -3.06 -0.4 c-0.93332 -0.24 -1.8066 -0.68 -2.62 -1.32 s-1.52 -1.42 -2.12 -2.34 s-1.0733 -1.94 -1.42 -3.06 s-0.52 -2.2667 -0.52 -3.44 l0 -6.36 c0 -1.36 -0.12668 -2.4267 -0.38 -3.2 s-0.52664 -1.36 -0.81996 -1.76 c-0.34668 -0.48 -0.73336 -0.8 -1.16 -0.96 z  M209.32 21.52 c1.0133 -0.13332 1.9667 -0.34 2.86 -0.62 s1.6866 -0.56668 2.38 -0.86 c0.77332 -0.32 1.4933 -0.68 2.16 -1.08 l0 21 l-7.4 0 l0 -18.44 z M223.35999999999999 19 c0.93332 0.24 1.82 0.66 2.66 1.26 s1.58 1.3267 2.22 2.18 s1.1467 1.8133 1.52 2.88 s0.56 2.1867 0.56 3.36 l0 11.28 l-7.32 0 l0 -11.84 l0 -9.2 c0.05332 0.02668 0.11332 0.04 0.18 0.04 s0.12668 0.01332 0.18 0.04 z M237 19 c0.93332 0.24 1.82 0.66 2.66 1.26 s1.58 1.3267 2.22 2.18 s1.1467 1.8133 1.52 2.88 s0.56 2.1867 0.56 3.36 l0 11.28 l-7.32 0 l0 -11.84 l0 -9.2 c0.05332 0.02668 0.11332 0.04 0.18 0.04 s0.12668 0.01332 0.18 0.04 z M250.08 25.16 c-0.72 -1.68 -0.23996 -3.2267 1.44 -4.64 c0.58668 -0.48 1.18 -0.84668 1.78 -1.1 s1.1533 -0.43332 1.66 -0.54 c0.58668 -0.10668 1.1467 -0.16 1.68 -0.16 c-0.29332 0.26668 -0.52 0.58668 -0.68 0.96 c-0.13332 0.32 -0.21332 0.71332 -0.24 1.18 s0.10664 1.0067 0.39996 1.62 c0.18668 0.4 0.28668 0.82 0.3 1.26 s-0.06 0.86 -0.22 1.26 s-0.38668 0.76 -0.68 1.08 s-0.65332 0.57332 -1.08 0.76 c-0.4 0.18668 -0.82 0.28 -1.26 0.28 s-0.86 -0.07332 -1.26 -0.22 s-0.76 -0.36668 -1.08 -0.66 s-0.57332 -0.65332 -0.76 -1.08 z M255.28 39.92 l3.08 0 c-1.0933 -0.37332 -1.9866 -1.04 -2.68 -2 s-1.04 -2.0533 -1.04 -3.28 s0.34668 -2.32 1.04 -3.28 s1.5866 -1.6267 2.68 -2 l-3.52 0 c-1.36 0 -2.5 0.17332 -3.42 0.52 s-1.6467 0.78 -2.18 1.3 s-0.91332 1.0867 -1.14 1.7 s-0.34 1.2 -0.34 1.76 c0 0.58668 0.1 1.1867 0.3 1.8 s0.56668 1.18 1.1 1.7 s1.26 0.94668 2.18 1.28 s2.0867 0.5 3.5 0.5 l0.44 0 z M263.24 19.04 l-0.36 -0.08 l0 9.2 l0 11.84 l7.32 0 l0 -11.28 c0 -1.1733 -0.18668 -2.2933 -0.56 -3.36 s-0.88 -2.0267 -1.52 -2.88 s-1.38 -1.58 -2.22 -2.18 s-1.7267 -1.02 -2.66 -1.26 z M293.08000000000004 19.32 c0.74668 0.61332 1.1599 1.38 1.2399 2.3 s-0.17332 1.74 -0.76 2.46 c-0.61332 0.74668 -1.3866 1.16 -2.32 1.24 s-1.7733 -0.18668 -2.52 -0.8 c-0.53332 -0.45332 -1.04 -0.73332 -1.52 -0.84 s-0.90668 -0.13336 -1.28 -0.08004 c-0.45332 0.05332 -0.85332 0.18664 -1.2 0.39996 c0.18668 -0.56 0.42668 -1.1067 0.72 -1.64 c0.26668 -0.45332 0.61336 -0.94664 1.04 -1.48 s0.97336 -1.0266 1.64 -1.48 c1.8933 -1.2533 3.5466 -1.28 4.96 -0.08 z M275.479921876 21.8 c0.82668 -0.21332 1.66 -0.5134 2.5 -0.90008 s1.5933 -0.78668 2.26 -1.2 s1.2067 -0.78664 1.62 -1.12 s0.62 -0.56664 0.62 -0.69996 l0 22 l-7 0 l0 -18.08 z M309.20000000000005 20.12 c1.4667 0 2.8467 0.25984 4.14 0.77984 s2.42 1.22 3.38 2.1 s1.72 1.92 2.28 3.12 s0.84 2.48 0.84 3.84 s-0.28 2.6333 -0.84 3.82 s-1.32 2.2267 -2.28 3.12 s-2.0867 1.6 -3.38 2.12 s-2.6733 0.78 -4.14 0.78 l-0.64 0 c0.50668 -0.4 0.96668 -0.92668 1.38 -1.58 s0.76664 -1.4066 1.06 -2.26 s0.52664 -1.7866 0.69996 -2.8 s0.26 -2.08 0.26 -3.2 s-0.08668 -2.1867 -0.26 -3.2 s-0.40664 -1.9466 -0.69996 -2.8 s-0.64664 -1.6066 -1.06 -2.26 s-0.87332 -1.18 -1.38 -1.58 l0.64 0 z M295.16 13.920000000000002 c1.2267 -0.53332 2.3732 -1.0867 3.4399 -1.66 s1.9867 -1.1 2.76 -1.58 c0.90668 -0.53332 1.7334 -1.0666 2.48 -1.6 l0 30.92 l-7 0 l0 -21.16 c0 -1.0133 -0.08668 -1.84 -0.26 -2.48 s-0.36664 -1.1467 -0.57996 -1.52 c-0.26668 -0.42668 -0.54668 -0.73336 -0.84 -0.92004 z M322.52000000000004 13.920000000000002 c1.2267 -0.53332 2.3732 -1.0867 3.4399 -1.66 s1.9867 -1.1 2.76 -1.58 c0.90668 -0.53332 1.7334 -1.0666 2.48 -1.6 l0 30.92 l-7 0 l0 -21.16 c0 -1.0133 -0.08668 -1.84 -0.26 -2.48 s-0.36664 -1.1467 -0.57996 -1.52 c-0.26668 -0.42668 -0.54668 -0.73336 -0.84 -0.92004 z M353.08000000000004 37.56 c0.93332 0 1.7733 -0.09332 2.52 -0.28 c-1.0933 1.0133 -2.3666 1.82 -3.82 2.42 s-3.02 0.9 -4.7 0.9 c-1.6533 0 -3.2066 -0.28668 -4.66 -0.86 s-2.72 -1.36 -3.8 -2.36 s-1.9333 -2.1733 -2.56 -3.52 s-0.94 -2.78 -0.94 -4.3 c0 -1.4667 0.26668 -2.84 0.8 -4.12 s1.26 -2.4067 2.18 -3.38 s2.0067 -1.76 3.26 -2.36 s2.5866 -0.94 4 -1.02 c-0.98668 1.12 -1.7067 2.3733 -2.16 3.76 s-0.68 2.9467 -0.68 4.68 c0 1.5467 0.27332 2.96 0.82 4.24 s1.3 2.38 2.26 3.3 s2.08 1.6333 3.36 2.14 s2.6533 0.76 4.12 0.76 z M351.0400000000001 30.04 c0.08 -0.42668 0.14672 -0.85332 0.20004 -1.28 s0.08 -0.86668 0.08 -1.32 c0 -1.7867 -0.22668 -3.4067 -0.68 -4.86 s-1.1733 -2.7533 -2.16 -3.9 c1.4133 0.08 2.7466 0.43332 4 1.06 s2.34 1.4467 3.26 2.46 s1.6467 2.18 2.18 3.5 s0.8 2.74 0.8 4.26 l0 0.08 l-7.68 0 z"></path></g></svg>